<svg width="3863" height="1053" viewBox="0 0 3863 1053" fill="none" xmlns="http://www.w3.org/2000/svg">
<path d="M1477.74 522.055C1477.74 547.445 1471.59 569.516 1459.28 588.266C1446.98 607.016 1429.01 621.469 1405.38 631.625C1381.94 641.781 1353.42 646.859 1319.83 646.859C1304.98 646.859 1290.43 645.883 1276.18 643.93C1262.11 641.977 1248.54 639.145 1235.45 635.434C1222.56 631.527 1210.26 626.742 1198.54 621.078V536.703C1218.85 545.688 1239.95 553.793 1261.82 561.02C1283.7 568.246 1305.38 571.859 1326.86 571.859C1341.7 571.859 1353.62 569.906 1362.6 566C1371.78 562.094 1378.42 556.723 1382.52 549.887C1386.62 543.051 1388.68 535.238 1388.68 526.449C1388.68 515.707 1385.06 506.527 1377.84 498.91C1370.61 491.293 1360.65 484.164 1347.95 477.523C1335.45 470.883 1321.29 463.754 1305.47 456.137C1295.51 451.449 1284.67 445.785 1272.95 439.145C1261.23 432.309 1250.1 424.008 1239.55 414.242C1229.01 404.477 1220.32 392.66 1213.48 378.793C1206.84 364.73 1203.52 347.934 1203.52 328.402C1203.52 302.816 1209.38 280.941 1221.1 262.777C1232.82 244.613 1249.52 230.746 1271.2 221.176C1293.07 211.41 1318.85 206.527 1348.54 206.527C1370.8 206.527 1392 209.164 1412.11 214.438C1432.43 219.516 1453.62 226.938 1475.69 236.703L1446.39 307.309C1426.66 299.301 1408.99 293.148 1393.36 288.852C1377.74 284.359 1361.82 282.113 1345.61 282.113C1334.28 282.113 1324.61 283.969 1316.61 287.68C1308.6 291.195 1302.54 296.273 1298.44 302.914C1294.34 309.359 1292.29 316.879 1292.29 325.473C1292.29 335.629 1295.22 344.223 1301.08 351.254C1307.13 358.09 1316.12 364.73 1328.03 371.176C1340.14 377.621 1355.18 385.141 1373.15 393.734C1395.02 404.086 1413.68 414.926 1429.11 426.254C1444.73 437.387 1456.74 450.57 1465.14 465.805C1473.54 480.844 1477.74 499.594 1477.74 522.055ZM1688.68 389.047L1778.03 212.68H1875.88L1733.79 474.301V641H1643.56V477.23L1501.47 212.68H1599.91L1688.68 389.047ZM2309.77 641H2194.34L2008.01 316.977H2005.38C2006.16 330.453 2006.84 344.027 2007.43 357.699C2008.01 371.371 2008.6 385.043 2009.18 398.715C2009.77 412.191 2010.36 425.766 2010.94 439.438V641H1929.79V212.68H2044.34L2230.38 533.48H2232.43C2232.04 520.199 2231.55 507.016 2230.96 493.93C2230.38 480.844 2229.79 467.758 2229.2 454.672C2228.81 441.586 2228.42 428.5 2228.03 415.414V212.68H2309.77V641ZM2583.11 641H2492.29V288.266H2375.98V212.68H2699.42V288.266H2583.11V641ZM3027.54 641L2996.49 539.047H2840.34L2809.28 641H2711.43L2862.6 210.922H2973.64L3125.39 641H3027.54ZM2974.81 462.875L2943.75 363.266C2941.8 356.625 2939.16 348.129 2935.84 337.777C2932.72 327.23 2929.5 316.586 2926.18 305.844C2923.05 294.906 2920.51 285.434 2918.56 277.426C2916.61 285.434 2913.87 295.395 2910.36 307.309C2907.04 319.027 2903.81 330.16 2900.69 340.707C2897.56 351.254 2895.32 358.773 2893.95 363.266L2863.19 462.875H2974.81ZM3525.88 641H3422.17L3322.56 478.988L3222.95 641H3125.69L3267.78 420.102L3134.77 212.68H3234.96L3327.25 366.781L3417.78 212.68H3515.63L3381.16 425.082L3525.88 641ZM3826.47 641H3579.79V212.68H3826.47V287.094H3670.61V381.137H3815.63V455.551H3670.61V566H3826.47V641Z" fill="#78777A"/>
<path d="M1298.36 750.84C1326 750.84 1346.16 756.797 1358.86 768.711C1371.55 780.527 1377.9 796.836 1377.9 817.637C1377.9 827.012 1376.49 835.996 1373.65 844.59C1370.82 853.086 1366.18 860.654 1359.74 867.295C1353.39 873.936 1344.89 879.209 1334.25 883.115C1323.61 886.924 1310.47 888.828 1294.85 888.828H1275.36V965H1229.95V750.84H1298.36ZM1296.02 788.047H1275.36V851.621H1290.3C1298.8 851.621 1306.17 850.498 1312.42 848.252C1318.67 846.006 1323.51 842.49 1326.93 837.705C1330.34 832.92 1332.05 826.768 1332.05 819.248C1332.05 808.701 1329.12 800.889 1323.26 795.811C1317.4 790.635 1308.32 788.047 1296.02 788.047ZM1484.98 839.023L1529.66 750.84H1578.59L1507.54 881.65V965H1462.42V883.115L1391.38 750.84H1440.6L1484.98 839.023ZM1688.16 965H1642.75V788.633H1584.59V750.84H1746.31V788.633H1688.16V965ZM1954.76 965H1909.49V872.568H1824.68V965H1779.27V750.84H1824.68V834.775H1909.49V750.84H1954.76V965ZM2203.34 857.627C2203.34 874.131 2201.29 889.17 2197.19 902.744C2193.09 916.221 2186.84 927.842 2178.44 937.607C2170.14 947.373 2159.59 954.893 2146.8 960.166C2134.01 965.342 2118.87 967.93 2101.39 967.93C2083.91 967.93 2068.77 965.342 2055.98 960.166C2043.19 954.893 2032.59 947.373 2024.19 937.607C2015.89 927.842 2009.69 916.172 2005.59 902.598C2001.49 889.023 1999.44 873.936 1999.44 857.334C1999.44 835.166 2003.05 815.879 2010.28 799.473C2017.6 782.969 2028.83 770.176 2043.97 761.094C2059.1 752.012 2078.34 747.471 2101.68 747.471C2124.92 747.471 2144.02 752.012 2158.96 761.094C2174 770.176 2185.13 782.969 2192.36 799.473C2199.68 815.977 2203.34 835.361 2203.34 857.627ZM2047.04 857.627C2047.04 872.568 2048.9 885.459 2052.61 896.299C2056.42 907.041 2062.33 915.342 2070.33 921.201C2078.34 926.963 2088.69 929.844 2101.39 929.844C2114.28 929.844 2124.73 926.963 2132.74 921.201C2140.74 915.342 2146.55 907.041 2150.17 896.299C2153.88 885.459 2155.73 872.568 2155.73 857.627C2155.73 835.166 2151.54 817.49 2143.14 804.6C2134.74 791.709 2120.92 785.264 2101.68 785.264C2088.89 785.264 2078.44 788.193 2070.33 794.053C2062.33 799.814 2056.42 808.115 2052.61 818.955C2048.9 829.697 2047.04 842.588 2047.04 857.627ZM2437.72 965H2380L2286.84 802.988H2285.52C2285.91 809.727 2286.25 816.514 2286.54 823.35C2286.84 830.186 2287.13 837.021 2287.42 843.857C2287.72 850.596 2288.01 857.383 2288.3 864.219V965H2247.73V750.84H2305L2398.02 911.24H2399.04C2398.85 904.6 2398.61 898.008 2398.31 891.465C2398.02 884.922 2397.73 878.379 2397.43 871.836C2397.24 865.293 2397.04 858.75 2396.85 852.207V750.84H2437.72V965Z" fill="#78777A"/>
<rect y="287.616" width="800" height="800" rx="150" transform="rotate(-20 0 287.616)" stroke="#78777A" stroke-width="70"/>
<rect x="273.617" y="14" width="800" height="800" rx="150" transform="rotate(20 273.617 14)" stroke="#78777A" stroke-width="70"/>
<path d="M284.973 592.07L408.02 539.58L284.973 488.066V415.557L503.479 518.584V560.576L284.973 664.092V592.07ZM751.037 664.092L532.531 560.576V518.584L751.037 415.557V488.066L627.99 539.58L751.037 592.07V664.092Z" fill="#78777A"/>
</svg>
